#!OML:ASF H:\Pregnant\Project 1\Capture day 1\Session 1\femalepreg.ASF
:FULLY-SPECIFIED
:DEGREES
608
root 12.7903 15.304 25.4619 378.643 -107.797 -358.405
lowerback -20.3921 2.73297 -1.25039
upperback -5.6267 3.50144 -1.68196
thorax 5.31169 1.51255 -0.252479
lowerneck -16.139 0.25724 2.33417
upperneck 34.8273 -4.36592 6.62602
head 14.9914 -1.12914 1.45994
rclavicle 1.33621e-014 3.93594e-014
rhumerus -27.3603 -8.41875 -74.5296
rradius 36.5653
rwrist -11.5349
rhand -27.2567 -21.7929
rfingers 7.12502
rthumb -0.668059 -51.7716
lclavicle 1.33621e-014 3.93594e-014
lhumerus -45.9152 17.7931 48.8312
lradius 42.2804
lwrist 40.669
lhand -32.6699 4.93987
lfingers 7.12502
lthumb -5.8955 34.8379
rfemur -17.6181 24.6892 19.1012
rtibia 34.7768
rfoot -19.9725 -8.1696
rtoes -19.3271
lfemur -39.4941 -14.0675 -16.3799
ltibia 27.6313
lfoot -6.86148 6.60641
ltoes -11.9993
609
root 12.7352 15.2876 25.4589 378.599 -107.415 -358.306
lowerback -20.4239 2.71004 -1.46044
upperback -5.61864 3.52068 -1.74984
thorax 5.32805 1.52107 -0.200158
lowerneck -16.0143 0.0879444 2.16807
upperneck 34.7863 -4.64883 6.85465
head 14.9664 -1.24717 1.53442
rclavicle -6.35816e-014 2.42517e-014
rhumerus -27.1316 -9.79714 -74.324
rradius 36.1046
rwrist -12.199
rhand -28.0134 -22.8361
rfingers 7.12502
rthumb -1.39888 -52.8113
lclavicle -6.35816e-014 2.42517e-014
lhumerus -45.5613 17.6672 49.344
lradius 42.8414
lwrist 41.13
lhand -32.9686 4.79191
lfingers 7.12502
lthumb -6.18393 34.6817
rfemur -17.7449 24.2561 19.2674
rtibia 35.4105
rfoot -19.9366 -7.99545
rtoes -19.8958
lfemur -39.7756 -14.2258 -16.424
ltibia 28.2887
lfoot -7.26354 6.44422
ltoes -11.9221
610
root 12.6816 15.2682 25.456 378.554 -107.011 -358.232
lowerback -20.4284 2.67577 -1.6619
upperback -5.58763 3.52634 -1.82401
thorax 5.35588 1.52383 -0.163182
lowerneck -15.8906 -0.0738327 2.02406
upperneck 34.7198 -4.92008 7.07612
head 14.9299 -1.35839 1.60371
rclavicle -2.04065e-014 3.97569e-016
rhumerus -26.9015 -11.0764 -74.179
rradius 35.6894
rwrist -12.8912
rhand -28.7343 -23.9065
rfingers 7.12502
rthumb -2.0951 -53.876
lclavicle -2.04065e-014 3.97569e-016
lhumerus -45.1806 17.5578 49.8826
lradius 43.3398
lwrist 41.5794
lhand -33.2599 4.66326
lfingers 7.12502
lthumb -6.46515 34.5446
rfemur -17.8826 23.7613 19.448
rtibia 36.1228
rfoot -19.9213 -7.80681
rtoes -20.5143
lfemur -40.0683 -14.4002 -16.4794
ltibia 28.9969
lfoot -7.67411 6.27808
ltoes -11.8567
611
root 12.6296 15.2459 25.4533 378.53 -106.588 -358.209
lowerback -20.4013 2.63064 -1.86519
upperback -5.53158 3.52093 -1.90057
thorax 5.39436 1.52201 -0.131038
lowerneck -15.7719 -0.231569 1.88568
upperneck 34.627 -5.18011 7.29408
head 14.8829 -1.46447 1.67213
rclavicle -4.51327e-014 5.96354e-015
rhumerus -26.6719 -12.2315 -74.0949
rradius 35.3292
rwrist -13.6526
rhand -29.4666 -24.9215
rfingers 7.12502
rthumb -2.80232 -54.8829
lclavicle -4.51327e-014 5.96354e-015
lhumerus -44.7654 17.4535 50.4651
lradius 43.7713
lwrist 42.0444
lhand -33.5689 4.54094
lfingers 7.12502
lthumb -6.76337 34.4129
rfemur -18.0389 23.1944 19.6317
rtibia 36.9258
rfoot -19.9221 -7.58114
rtoes -21.1338
lfemur -40.3601 -14.5938 -16.5537
ltibia 29.7408
lfoot -8.08613 6.11355
ltoes -11.8117
612
root 12.5792 15.2211 25.4508 378.561 -106.154 -358.273
lowerback -20.3379 2.57173 -2.08184
upperback -5.45268 3.5023 -1.97959
thorax 5.43797 1.51439 -0.0980347
lowerneck -15.6609 -0.381306 1.75442
upperneck 34.5134 -5.42304 7.50528
head 14.828 -1.56304 1.73909
rclavicle 1.75055e-014 3.97569e-015
rhumerus -26.4442 -13.2616 -74.0673
rradius 35.0269
rwrist -14.4426
rhand -30.1536 -25.8505
rfingers 7.12502
rthumb -3.46583 -55.802
lclavicle 1.75055e-014 3.97569e-015
lhumerus -44.3225 17.3592 51.0865
lradius 44.1357
lwrist 42.511
lhand -33.8787 4.44218
lfingers 7.12502
lthumb -7.06249 34.3044
rfemur -18.2254 22.5478 19.8069
rtibia 37.8352
rfoot -19.9242 -7.31966
rtoes -21.7808
lfemur -40.6396 -14.8056 -16.6573
ltibia 30.5031
lfoot -8.49417 5.94961
ltoes -11.7887
613
root 12.5308 15.1936 25.4492 378.646 -105.705 -358.425
lowerback -20.2246 2.50167 -2.30089
upperback -5.35325 3.47108 -2.06346
thorax 5.47805 1.50142 -0.0732918
lowerneck -15.5602 -0.524773 1.63117
upperneck 34.3821 -5.65351 7.71248
head 14.7675 -1.65552 1.80478
rclavicle -2.33261e-014 -2.62396e-014
rhumerus -26.2229 -14.1735 -74.0869
rradius 34.7779
rwrist -15.2183
rhand -30.7649 -26.6427
rfingers 7.12502
rthumb -4.05608 -56.5838
lclavicle -2.33261e-014 -2.62396e-014
lhumerus -43.8456 17.2615 51.7464
lradius 44.4288
lwrist 42.9836
lhand -34.1977 4.35082
lfingers 7.12502
lthumb -7.37037 34.2024
rfemur -18.453 21.8092 19.9733
rtibia 38.8722
rfoot -19.9218 -7.01612
rtoes -22.446
lfemur -40.8954 -15.0428 -16.7878
ltibia 31.2637
lfoot -8.88616 5.78554
ltoes -11.783
614
root 12.4843 15.1636 25.4487 378.839 -105.245 -358.722
lowerback -20.0587 2.41748 -2.53665
upperback -5.23518 3.42534 -2.15292
thorax 5.51026 1.48194 -0.0500689
lowerneck -15.476 -0.660418 1.51537
upperneck 34.2383 -5.86791 7.91065
head 14.7048 -1.74078 1.86788
rclavicle -1.30763e-014 -1.59028e-015
rhumerus -26.0104 -14.9682 -74.145
rradius 34.5822
rwrist -15.9225
rhand -31.2091 -27.2884
rfingers 7.12502
rthumb -4.48502 -57.2209
lclavicle -1.30763e-014 -1.59028e-015
lhumerus -43.3399 17.1603 52.4419
lradius 44.651
lwrist 43.4578
lhand -34.5015 4.28534
lfingers 7.12502
lthumb -7.66363 34.1265
rfemur -18.737 20.9813 20.1097
rtibia 40.0528
rfoot -19.9095 -6.65558
rtoes -23.0866
lfemur -41.1205 -15.3091 -16.9575
ltibia 32.007
lfoot -9.25532 5.61992
ltoes -11.7771
